<svg version="1.1" viewBox="0.0 0.0 960.0 540.0" fill="none" stroke="none" stroke-linecap="square" stroke-miterlimit="10" xmlns:xlink="http://www.w3.org/1999/xlink" xmlns="http://www.w3.org/2000/svg"><clipPath id="gd251bb473_0_600.0"><path d="m0 0l960.0 0l0 540.0l-960.0 0l0 -540.0z" clip-rule="nonzero"/></clipPath><g clip-path="url(#gd251bb473_0_600.0)"><path fill="#353535" d="m0 0l960.0 0l0 540.0l-960.0 0z" fill-rule="evenodd"/><path fill="#000000" fill-opacity="0.0" d="m44.640232 43.637794l19.244091 0" fill-rule="evenodd"/><path stroke="#ffffff" stroke-width="2.0" stroke-linejoin="round" stroke-linecap="butt" d="m44.640232 43.637794l19.244091 0" fill-rule="evenodd"/><path fill="#000000" fill-opacity="0.0" d="m29.721792 74.7664l906.20465 0l0 402.67712l-906.20465 0z" fill-rule="evenodd"/><path fill="#ffffff" d="m60.08117 99.06953l3.953125 0l6.0 15.109375l6.0625 -15.109375l4.03125 0l-7.453125 18.171875l8.171875 19.265633l15.421875 -37.734383l4.546875 0l-18.046875 42.593758l-3.734375 0l-8.9375 -21.062508l-9.0 21.062508l-3.65625 0l-18.0 -42.593758l4.5 0l15.484375 37.734383l8.09375 -19.265633l-7.4375 -18.171875zm72.1818 42.296883l-4.078125 0l0 -17.453133q0 -5.28125 -1.8593674 -7.953125q-1.859375 -2.671875 -5.34375 -2.671875q-2.28125 0 -4.53125 1.171875q-2.25 1.171875 -3.96875 3.1875q-1.703125 2.0 -2.421875 4.578125l0 19.140633l-4.078125 0l0 -43.796883l4.078125 0l0 19.609375q1.859375 -3.46875 5.1875 -5.53125q3.328125 -2.078125 7.109375 -2.078125q2.703125 0 4.59375 0.96875q1.8906174 0.953125 3.0624924 2.78125q1.171875 1.828125 1.703125 4.265625q0.546875 2.421875 0.546875 5.484375l0 18.296883zm9.715591 9.59375q0.84375 0.0625 1.625 0.09375q0.78125 0.03125 1.140625 -0.09375q0.71875 -0.109375 1.375 -0.828125q0.65625 -0.71875 1.5625 -2.765625q0.90625 -2.046875 2.515625 -6.0l-13.609375 -31.265633l4.3125 0l11.46875 27.062508l10.546875 -27.062508l4.078125 0l-16.1875 40.328133q-0.421875 1.140625 -1.265625 2.125q-0.84375 1.0 -2.078125 1.5625q-1.21875 0.5625 -3.015625 0.625q-0.546875 0.0625 -1.125 0.03125q-0.5625 -0.03125 -1.34375 -0.140625l0 -3.671875zm42.30934 -25.140633q0 -4.4375 1.828125 -8.125q1.828125 -3.6875 5.0625 -5.90625q3.25 -2.21875 7.390625 -2.21875q3.890625 0 6.984375 2.078125q3.09375 2.0625 4.828125 5.0l0 -19.078125l4.078125 0l0 38.875008q0 0.84375 0.359375 1.234375q0.359375 0.390625 1.078125 0.453125l0 3.234375q-1.203125 0.1875 -1.859375 0.125q-1.25 -0.0625 -2.21875 -1.015625q-0.953125 -0.96875 -0.953125 -2.109375l0 -3.0625q-1.859375 3.0625 -5.046875 4.859375q-3.171875 1.796875 -6.59375 1.796875q-3.25 0 -5.984375 -1.3125q-2.71875 -1.328125 -4.734375 -3.59375q-2.0 -2.28125 -3.109375 -5.1875q-1.109375 -2.921875 -1.109375 -6.0468826zm26.09375 4.8125076l0 -9.671883q-0.78125 -2.15625 -2.53125 -3.921875q-1.734375 -1.765625 -3.921875 -2.8125q-2.1875 -1.0625 -4.34375 -1.0625q-2.515625 0 -4.5625 1.0625q-2.046875 1.046875 -3.515625 2.84375q-1.46875 1.796875 -2.25 4.078125q-0.78125 2.28125 -0.78125 4.671875q0 2.5312576 0.875 4.8125076q0.875 2.28125 2.484375 4.046875q1.625 1.765625 3.71875 2.734375q2.109375 0.953125 4.5625 0.953125q1.5625 0 3.234375 -0.59375q1.6875 -0.609375 3.21875 -1.65625q1.53125 -1.046875 2.546875 -2.484375q1.03125 -1.453125 1.265625 -3.0zm26.632462 11.328125q-3.359375 0 -6.203125 -1.28125q-2.84375 -1.296875 -4.921875 -3.546875q-2.0625 -2.25 -3.203125 -5.15625q-1.140625 -2.90625 -1.140625 -6.1562576q0 -3.359375 1.140625 -6.265625q1.140625 -2.90625 3.234375 -5.15625q2.09375 -2.25 4.9375 -3.53125q2.859375 -1.296875 6.21875 -1.296875q3.359375 0 6.171875 1.296875q2.828125 1.28125 4.921875 3.53125q2.109375 2.25 3.25 5.15625q1.140625 2.90625 1.140625 6.265625q0 3.2500076 -1.140625 6.1562576q-1.140625 2.90625 -3.21875 5.15625q-2.0625 2.25 -4.921875 3.546875q-2.84375 1.28125 -6.265625 1.28125zm-11.328125 -16.078133q0 3.4843826 1.53125 6.3437576q1.53125 2.84375 4.109375 4.5q2.578125 1.640625 5.6875 1.640625q3.125 0 5.703125 -1.671875q2.578125 -1.6875 4.140625 -4.59375q1.5625 -2.921875 1.5625 -6.3281326q0 -3.484375 -1.5625 -6.359375q-1.5625 -2.890625 -4.140625 -4.5625q-2.578125 -1.6875 -5.703125 -1.6875q-3.109375 0 -5.671875 1.75q-2.546875 1.734375 -4.109375 4.59375q-1.546875 2.84375 -1.546875 6.375zm47.21559 16.078133q-3.359375 0 -6.25 -1.28125q-2.875 -1.296875 -4.96875 -3.546875q-2.09375 -2.25 -3.265625 -5.1875q-1.171875 -2.9375 -1.171875 -6.2968826q0 -4.375 2.0 -8.03125q2.015625 -3.671875 5.546875 -5.859375q3.546875 -2.1875 8.046875 -2.1875q4.625 0 8.0625 2.21875q3.453125 2.21875 5.4375305 5.859375q1.984375 3.625 1.984375 7.9375q0 0.484375 0 0.9375q0 0.4375 -0.0625 0.6875l-26.765656 0q0.3125 3.3593826 1.890625 5.9687576q1.59375 2.609375 4.140625 4.140625q2.5625 1.53125 5.5625 1.53125q3.046875 0 5.78125 -1.5625q2.734375 -1.5625 3.8125 -4.078125l3.5312805 0.953125q-0.9531555 2.21875 -2.9375305 4.03125q-1.96875 1.796875 -4.640625 2.78125q-2.671875 0.984375 -5.734375 0.984375zm-11.515625 -17.687508l23.09375 0q-0.234375 -3.421875 -1.828125 -6.0q-1.59375 -2.59375 -4.140625 -4.0625q-2.546875 -1.46875 -5.609375 -1.46875q-3.0625 0 -5.578125 1.46875q-2.515625 1.46875 -4.109375 4.09375q-1.59375 2.609375 -1.828125 5.96875zm43.50125 17.687508q-3.84375 0 -7.15625 -1.25q-3.296875 -1.265625 -5.6875 -3.84375l1.671875 -2.875q2.640625 2.453125 5.3125 3.5625q2.671875 1.109375 5.671875 1.109375q3.65625 0 5.9375 -1.46875q2.28125 -1.46875 2.28125 -4.234375q0 -1.859375 -1.109375 -2.84375q-1.109375 -0.984375 -3.1875 -1.609375q-2.0625 -0.6406326 -4.9375 -1.3593826q-3.25 -0.90625 -5.4375 -1.890625q-2.1875 -0.984375 -3.296875 -2.515625q-1.109375 -1.53125 -1.109375 -4.0q0 -3.0625 1.53125 -5.0625q1.53125 -2.015625 4.203125 -3.0625q2.671875 -1.046875 5.96875 -1.046875q3.59375 0 6.359375 1.140625q2.765625 1.140625 4.5 3.171875l-1.984375 2.765625q-1.671875 -1.921875 -3.984375 -2.84375q-2.3125 -0.9375 -5.125 -0.9375q-1.921875 0 -3.671875 0.515625q-1.734375 0.5 -2.84375 1.671875q-1.109375 1.171875 -1.109375 3.21875q0 1.671875 0.828125 2.609375q0.84375 0.921875 2.515625 1.5625q1.6875 0.625 4.15625 1.34375q3.53125 0.953125 6.171875 1.953125q2.640625 0.984375 4.078125 2.5468826q1.453125 1.5625 1.453125 4.375q0 4.390625 -3.3125 6.84375q-3.296875 2.453125 -8.6875 2.453125zm47.326813 0q-3.359375 0 -6.203125 -1.28125q-2.84375 -1.296875 -4.921875 -3.546875q-2.0625 -2.25 -3.203125 -5.15625q-1.140625 -2.90625 -1.140625 -6.1562576q0 -3.359375 1.140625 -6.265625q1.140625 -2.90625 3.234375 -5.15625q2.09375 -2.25 4.9375 -3.53125q2.859375 -1.296875 6.21875 -1.296875q3.359375 0 6.171875 1.296875q2.828125 1.28125 4.921875 3.53125q2.109375 2.25 3.25 5.15625q1.140625 2.90625 1.140625 6.265625q0 3.2500076 -1.140625 6.1562576q-1.140625 2.90625 -3.21875 5.15625q-2.0625 2.25 -4.921875 3.546875q-2.84375 1.28125 -6.265625 1.28125zm-11.328125 -16.078133q0 3.4843826 1.53125 6.3437576q1.53125 2.84375 4.109375 4.5q2.578125 1.640625 5.6875 1.640625q3.125 0 5.703125 -1.671875q2.578125 -1.6875 4.140625 -4.59375q1.5625 -2.921875 1.5625 -6.3281326q0 -3.484375 -1.5625 -6.359375q-1.5625 -2.890625 -4.140625 -4.5625q-2.578125 -1.6875 -5.703125 -1.6875q-3.109375 0 -5.671875 1.75q-2.546875 1.734375 -4.109375 4.59375q-1.546875 2.84375 -1.546875 6.375zm33.41873 2.5781326l0 -18.359383l4.078125 0l0 17.640625q0 5.3437576 1.828125 7.9843826q1.828125 2.640625 5.4375 2.640625q2.390625 0 4.640625 -1.046875q2.25 -1.046875 3.984375 -3.0q1.75 -1.953125 2.640625 -4.53125l0 -19.687508l4.09375 0l0 26.343758q0 0.84375 0.359375 1.234375q0.359375 0.390625 1.078125 0.453125l0 3.234375q-0.71875 0.0625 -1.140625 0.09375q-0.421875 0.03125 -0.78125 0.03125q-1.203125 -0.125 -2.078125 -0.96875q-0.859375 -0.84375 -0.921875 -2.03125l-0.125 -4.203125q-2.03125 3.59375 -5.546875 5.640625q-3.515625 2.03125 -7.59375 2.03125q-4.921875 0 -7.4375 -3.40625q-2.515625 -3.421875 -2.515625 -10.09375zm51.53058 -14.750008q-4.078125 0.109375 -7.171875 2.28125q-3.078125 2.15625 -4.34375 5.9375l0 19.437508l-4.078125 0l0 -31.265633l3.84375 0l0 7.5q1.609375 -3.296875 4.28125 -5.328125q2.671875 -2.046875 5.671875 -2.28125q0.609375 -0.0625 1.046875 -0.0625q0.453125 0 0.75 0.0625l0 3.71875zm65.88623 27.656258l-4.078125 0l0 -17.453133q0 -5.46875 -1.75 -8.046875q-1.734375 -2.578125 -5.15625 -2.578125q-3.53125 0 -6.328125 2.515625q-2.78125 2.515625 -3.921875 6.484375l0 19.078133l-4.078125 0l0 -17.453133q0 -5.53125 -1.6875 -8.078125q-1.6875 -2.546875 -5.15625 -2.546875q-3.484375 0 -6.3125 2.46875q-2.8125 2.453125 -3.953125 6.46875l0 19.140633l-4.078125 0l0 -31.265633l3.71875 0l0 7.078125q1.984375 -3.65625 5.0625 -5.625q3.09375 -1.984375 6.875 -1.984375q3.90625 0 6.296875 2.21875q2.40625 2.21875 2.953125 5.8125q2.15625 -3.953125 5.1875 -5.984375q3.03125 -2.046875 6.859375 -2.046875q2.640625 0 4.46875 0.96875q1.84375 0.953125 2.953125 2.71875q1.109375 1.765625 1.609375 4.265625q0.515625 2.484375 0.515625 5.546875l0 18.296883zm21.952454 0.59375q-3.359375 0 -6.203125 -1.28125q-2.84375 -1.296875 -4.921875 -3.546875q-2.0625 -2.25 -3.203125 -5.15625q-1.140625 -2.90625 -1.140625 -6.1562576q0 -3.359375 1.140625 -6.265625q1.140625 -2.90625 3.234375 -5.15625q2.09375 -2.25 4.9375 -3.53125q2.859375 -1.296875 6.21875 -1.296875q3.359375 0 6.171875 1.296875q2.828125 1.28125 4.921875 3.53125q2.109375 2.25 3.25 5.15625q1.140625 2.90625 1.140625 6.265625q0 3.2500076 -1.140625 6.1562576q-1.140625 2.90625 -3.21875 5.15625q-2.0625 2.25 -4.921875 3.546875q-2.84375 1.28125 -6.265625 1.28125zm-11.328125 -16.078133q0 3.4843826 1.53125 6.3437576q1.53125 2.84375 4.109375 4.5q2.578125 1.640625 5.6875 1.640625q3.125 0 5.703125 -1.671875q2.578125 -1.6875 4.140625 -4.59375q1.5625 -2.921875 1.5625 -6.3281326q0 -3.484375 -1.5625 -6.359375q-1.5625 -2.890625 -4.140625 -4.5625q-2.578125 -1.6875 -5.703125 -1.6875q-3.109375 0 -5.671875 1.75q-2.546875 1.734375 -4.109375 4.59375q-1.546875 2.84375 -1.546875 6.375zm49.01245 16.078133q-3.65625 0 -6.78125 -1.890625q-3.109375 -1.890625 -4.859375 -4.765625l0 6.0625l-3.65625 0l0 -43.796883l4.078125 0l0 19.078125q2.109375 -3.1875 5.046875 -5.125q2.9375 -1.953125 6.828125 -1.953125q3.3125 0 5.921875 1.375q2.609375 1.375 4.46875 3.6875q1.859375 2.3125 2.8125 5.234375q0.96875 2.90625 0.96875 5.953125q0 3.3125076 -1.109375 6.1875076q-1.109375 2.875 -3.15625 5.125q-2.046875 2.25 -4.71875 3.546875q-2.65625 1.28125 -5.84375 1.28125zm-0.953125 -3.59375q2.515625 0 4.671875 -1.015625q2.171875 -1.03125 3.71875 -2.828125q1.5625 -1.796875 2.40625 -4.046875q0.84375 -2.25 0.84375 -4.6562576q0 -3.296875 -1.421875 -6.203125q-1.40625 -2.90625 -3.890625 -4.671875q-2.484375 -1.78125 -5.859375 -1.78125q-2.390625 0 -4.46875 1.078125q-2.0625 1.078125 -3.65625 2.859375q-1.59375 1.765625 -2.609375 3.859375l0 9.718758q0.234375 1.625 1.25 3.046875q1.03125 1.40625 2.5625 2.421875q1.53125 1.015625 3.203125 1.625q1.6875 0.59375 3.25 0.59375zm22.676208 3.0l0 -31.265633l4.078125 0l0 31.265633l-4.078125 0zm0 -37.796883l0 -6.0l4.078125 0l0 6.0l-4.078125 0zm13.267456 -6.0l4.078125 0l0 36.718758q0 2.34375 0.828125 3.0625q0.84375 0.71875 2.046875 0.71875q1.078125 0 2.15625 -0.234375q1.078125 -0.25 1.859375 -0.484375l0.71875 3.296875q-1.140625 0.484375 -2.796875 0.78125q-1.640625 0.296875 -2.84375 0.296875q-2.75 0 -4.40625 -1.609375q-1.640625 -1.625 -1.640625 -4.453125l0 -38.093758zm29.632507 44.390633q-3.359375 0 -6.25 -1.28125q-2.875 -1.296875 -4.96875 -3.546875q-2.09375 -2.25 -3.265625 -5.1875q-1.171875 -2.9375 -1.171875 -6.2968826q0 -4.375 2.0 -8.03125q2.015625 -3.671875 5.546875 -5.859375q3.546875 -2.1875 8.046875 -2.1875q4.625 0 8.0625 2.21875q3.453125 2.21875 5.4375 5.859375q1.984375 3.625 1.984375 7.9375q0 0.484375 0 0.9375q0 0.4375 -0.0625 0.6875l-26.765625 0q0.3125 3.3593826 1.890625 5.9687576q1.59375 2.609375 4.140625 4.140625q2.5625 1.53125 5.5625 1.53125q3.046875 0 5.78125 -1.5625q2.734375 -1.5625 3.8125 -4.078125l3.53125 0.953125q-0.953125 2.21875 -2.9375 4.03125q-1.96875 1.796875 -4.640625 2.78125q-2.671875 0.984375 -5.734375 0.984375zm-11.515625 -17.687508l23.09375 0q-0.234375 -3.421875 -1.828125 -6.0q-1.59375 -2.59375 -4.140625 -4.0625q-2.546875 -1.46875 -5.609375 -1.46875q-3.0625 0 -5.578125 1.46875q-2.515625 1.46875 -4.109375 4.09375q-1.59375 2.609375 -1.828125 5.96875zm33.891846 21.953133l1.03125 -5.046875l-1.390625 0l0 -5.6875l3.96875 0l0 5.6875l-1.5 5.046875l-2.109375 0zm41.706238 -4.265625q-3.421875 0 -6.28125 -1.28125q-2.84375 -1.296875 -4.96875 -3.578125q-2.125 -2.28125 -3.296875 -5.21875q-1.171875 -2.9375 -1.171875 -6.2343826q0 -4.4375 1.96875 -8.09375q1.984375 -3.671875 5.515625 -5.828125q3.546875 -2.15625 8.171875 -2.15625q4.375 0 7.734375 2.015625q3.359375 2.0 4.984375 5.421875l-3.953125 1.265625q-1.328125 -2.40625 -3.703125 -3.75q-2.359375 -1.359375 -5.25 -1.359375q-3.109375 0 -5.6875 1.625q-2.578125 1.625 -4.109375 4.453125q-1.53125 2.8125 -1.53125 6.40625q0 3.5312576 1.546875 6.4218826q1.5625 2.875 4.140625 4.59375q2.59375 1.703125 5.703125 1.703125q2.046875 0 3.9375 -0.71875q1.890625 -0.71875 3.296875 -1.953125q1.40625 -1.234375 1.890625 -2.671875l4.015625 1.203125q-0.828125 2.21875 -2.78125 4.0q-1.953125 1.765625 -4.5625 2.75q-2.609375 0.984375 -5.609375 0.984375zm32.389954 0q-3.359375 0 -6.203125 -1.28125q-2.84375 -1.296875 -4.921875 -3.546875q-2.0625 -2.25 -3.203125 -5.15625q-1.140625 -2.90625 -1.140625 -6.1562576q0 -3.359375 1.140625 -6.265625q1.140625 -2.90625 3.234375 -5.15625q2.09375 -2.25 4.9375 -3.53125q2.859375 -1.296875 6.21875 -1.296875q3.359375 0 6.171875 1.296875q2.828125 1.28125 4.921875 3.53125q2.109375 2.25 3.25 5.15625q1.140625 2.90625 1.140625 6.265625q0 3.2500076 -1.140625 6.1562576q-1.140625 2.90625 -3.21875 5.15625q-2.0625 2.25 -4.921875 3.546875q-2.84375 1.28125 -6.265625 1.28125zm-11.328125 -16.078133q0 3.4843826 1.53125 6.3437576q1.53125 2.84375 4.109375 4.5q2.578125 1.640625 5.6875 1.640625q3.125 0 5.703125 -1.671875q2.578125 -1.6875 4.140625 -4.59375q1.5625 -2.921875 1.5625 -6.3281326q0 -3.484375 -1.5625 -6.359375q-1.5625 -2.890625 -4.140625 -4.5625q-2.578125 -1.6875 -5.703125 -1.6875q-3.109375 0 -5.671875 1.75q-2.546875 1.734375 -4.109375 4.59375q-1.546875 2.84375 -1.546875 6.375zm80.215576 15.484383l-4.078125 0l0 -17.453133q0 -5.46875 -1.75 -8.046875q-1.734375 -2.578125 -5.15625 -2.578125q-3.53125 0 -6.328125 2.515625q-2.78125 2.515625 -3.921875 6.484375l0 19.078133l-4.078125 0l0 -17.453133q0 -5.53125 -1.6875 -8.078125q-1.6875 -2.546875 -5.15625 -2.546875q-3.484375 0 -6.3125 2.46875q-2.8125 2.453125 -3.953125 6.46875l0 19.140633l-4.078125 0l0 -31.265633l3.71875 0l0 7.078125q1.984375 -3.65625 5.0625 -5.625q3.09375 -1.984375 6.875 -1.984375q3.90625 0 6.296875 2.21875q2.40625 2.21875 2.953125 5.8125q2.15625 -3.953125 5.1875 -5.984375q3.03125 -2.046875 6.859375 -2.046875q2.640625 0 4.46875 0.96875q1.84375 0.953125 2.953125 2.71875q1.109375 1.765625 1.609375 4.265625q0.515625 2.484375 0.515625 5.546875l0 18.296883zm22.139954 0.59375q-3.359375 0 -6.25 -1.28125q-2.875 -1.296875 -4.96875 -3.546875q-2.09375 -2.25 -3.265625 -5.1875q-1.171875 -2.9375 -1.171875 -6.2968826q0 -4.375 2.0 -8.03125q2.015625 -3.671875 5.546875 -5.859375q3.546875 -2.1875 8.046875 -2.1875q4.625 0 8.0625 2.21875q3.453125 2.21875 5.4375 5.859375q1.984375 3.625 1.984375 7.9375q0 0.484375 0 0.9375q0 0.4375 -0.0625 0.6875l-26.765625 0q0.3125 3.3593826 1.890625 5.9687576q1.59375 2.609375 4.140625 4.140625q2.5625 1.53125 5.5625 1.53125q3.046875 0 5.78125 -1.5625q2.734375 -1.5625 3.8125 -4.078125l3.53125 0.953125q-0.953125 2.21875 -2.9375 4.03125q-1.96875 1.796875 -4.640625 2.78125q-2.671875 0.984375 -5.734375 0.984375zm-11.515625 -17.687508l23.09375 0q-0.234375 -3.421875 -1.828125 -6.0q-1.59375 -2.59375 -4.140625 -4.0625q-2.546875 -1.46875 -5.609375 -1.46875q-3.0625 0 -5.578125 1.46875q-2.515625 1.46875 -4.109375 4.09375q-1.59375 2.609375 -1.828125 5.96875z" fill-rule="nonzero"/><path fill="#ffffff" d="m82.58117 182.10078l4.015625 0l-13.4375 31.265625l-3.53125 0l-6.546875 -15.546875l-6.484375 15.546875l-3.53125 0l-13.4375 -31.265625l3.953125 0l11.40625 27.0625l5.75 -14.09375l-5.28125 -12.90625l3.671875 0l3.953125 10.140625l4.015625 -10.140625l3.609375 0l-5.21875 12.90625l5.75 14.09375l11.34375 -27.0625zm9.420578 31.265625l0 -31.265625l4.078125 0l0 31.265625l-4.078125 0zm0 -37.796875l0 -6.0l4.078125 0l0 6.0l-4.078125 0zm28.079987 36.296875q-0.484375 0.1875 -1.5 0.671875q-1.015625 0.46875 -2.46875 0.828125q-1.4375 0.359375 -3.109375 0.359375q-1.734375 0 -3.265625 -0.65625q-1.53125 -0.65625 -2.4375 -2.0q-0.90625 -1.359375 -0.90625 -3.34375l0 -22.375l-4.3125 0l0 -3.25l4.3125 0l0 -10.546875l4.09375 0l0 10.546875l7.1875 0l0 3.25l-7.1875 0l0 21.234375q0.109375 1.6875 1.21875 2.53125q1.109375 0.828125 2.5625 0.828125q1.671875 0 3.046875 -0.5625q1.390625 -0.578125 1.6875 -0.8125l1.078125 3.296875zm31.381218 1.5l-4.078125 0l0 -17.453125q0 -5.28125 -1.859375 -7.953125q-1.859375 -2.671875 -5.34375 -2.671875q-2.28125 0 -4.53125 1.171875q-2.25 1.171875 -3.96875 3.1875q-1.703125 2.0 -2.421875 4.578125l0 19.140625l-4.0781174 0l0 -43.796875l4.0781174 0l0 19.609375q1.859375 -3.46875 5.1875 -5.53125q3.328125 -2.078125 7.109375 -2.078125q2.703125 0 4.59375 0.96875q1.890625 0.953125 3.0625 2.78125q1.171875 1.828125 1.703125 4.265625q0.546875 2.421875 0.546875 5.484375l0 18.296875z" fill-rule="nonzero"/><path fill="#fb8c00" d="m173.3679 197.81953q0 -4.4375 1.828125 -8.125q1.828125 -3.6875 5.0625 -5.90625q3.25 -2.21875 7.390625 -2.21875q3.890625 0 6.984375 2.078125q3.09375 2.0625 4.828125 5.0l0 -19.078125l4.078125 0l0 38.875q0 0.84375 0.359375 1.234375q0.359375 0.390625 1.078125 0.453125l0 3.234375q-1.203125 0.1875 -1.859375 0.125q-1.25 -0.0625 -2.21875 -1.015625q-0.953125 -0.96875 -0.953125 -2.109375l0 -3.0625q-1.859375 3.0625 -5.046875 4.859375q-3.171875 1.796875 -6.59375 1.796875q-3.25 0 -5.984375 -1.3125q-2.71875 -1.328125 -4.734375 -3.59375q-2.0 -2.28125 -3.109375 -5.1875q-1.109375 -2.921875 -1.109375 -6.046875zm26.09375 4.8125l0 -9.671875q-0.78125 -2.15625 -2.53125 -3.921875q-1.734375 -1.765625 -3.921875 -2.8125q-2.1875 -1.0625 -4.34375 -1.0625q-2.515625 0 -4.5625 1.0625q-2.046875 1.046875 -3.515625 2.84375q-1.46875 1.796875 -2.25 4.078125q-0.78125 2.28125 -0.78125 4.671875q0 2.53125 0.875 4.8125q0.875 2.28125 2.484375 4.046875q1.625 1.765625 3.71875 2.734375q2.109375 0.953125 4.5625 0.953125q1.5625 0 3.234375 -0.59375q1.6875 -0.609375 3.21875 -1.65625q1.53125 -1.046875 2.546875 -2.484375q1.03125 -1.453125 1.265625 -3.0zm26.819962 11.328125q-3.359375 0 -6.25 -1.28125q-2.875 -1.296875 -4.96875 -3.546875q-2.09375 -2.25 -3.265625 -5.1875q-1.171875 -2.9375 -1.171875 -6.296875q0 -4.375 2.0 -8.03125q2.015625 -3.671875 5.546875 -5.859375q3.546875 -2.1875 8.046875 -2.1875q4.625 0 8.0625 2.21875q3.453125 2.21875 5.4375 5.859375q1.984375 3.625 1.984375 7.9375q0 0.484375 0 0.9375q0 0.4375 -0.0625 0.6875l-26.765625 0q0.3125 3.359375 1.890625 5.96875q1.59375 2.609375 4.140625 4.140625q2.5625 1.53125 5.5625 1.53125q3.046875 0 5.78125 -1.5625q2.734375 -1.5625 3.8125 -4.078125l3.53125 0.953125q-0.953125 2.21875 -2.9375 4.03125q-1.96875 1.796875 -4.640625 2.78125q-2.671875 0.984375 -5.734375 0.984375zm-11.515625 -17.6875l23.09375 0q-0.234375 -3.421875 -1.828125 -6.0q-1.59375 -2.59375 -4.140625 -4.0625q-2.546875 -1.46875 -5.609375 -1.46875q-3.0625 0 -5.578125 1.46875q-2.515625 1.46875 -4.109375 4.09375q-1.59375 2.609375 -1.828125 5.96875zm34.375595 17.09375l0 -28.015625l-4.3125 0l0 -3.25l4.3125 0l0 -0.828125q0 -3.84375 1.109375 -6.59375q1.109375 -2.765625 3.171875 -4.234375q2.078125 -1.484375 4.9062653 -1.484375q1.859375 0 3.59375 0.546875q1.734375 0.546875 3.0 1.4375l-1.265625 2.9375q-0.78125 -0.65625 -2.046875 -1.015625q-1.25 -0.359375 -2.515625 -0.359375q-2.8125 0 -4.3437653 2.21875q-1.53125 2.21875 -1.53125 6.421875l0 0.953125l8.64064 0l0 3.25l-8.64064 0l0 28.015625l-4.078125 0zm15.664383 -9.0q0 -2.9375 1.671875 -5.0625q1.6875 -2.140625 4.65625 -3.3125q2.96875 -1.171875 6.875 -1.171875q2.265625 0 4.71875 0.375q2.46875 0.359375 4.390625 1.078125l0 -2.640625q0 -3.96875 -2.34375 -6.296875q-2.328125 -2.34375 -6.46875 -2.34375q-2.53125 0 -4.96875 0.9375q-2.421875 0.921875 -5.0625 2.71875l-1.546875 -2.875q3.046875 -2.109375 5.984375 -3.15625q2.953125 -1.046875 6.015625 -1.046875q5.75 0 9.109375 3.296875q3.359375 3.296875 3.359375 9.125l0 14.453125q0 0.84375 0.359375 1.234375q0.359375 0.390625 1.140625 0.453125l0 3.234375q-0.65625 0.0625 -1.140625 0.125q-0.46875 0.0625 -0.71875 0q-1.5 -0.0625 -2.28125 -0.953125q-0.78125 -0.90625 -0.828125 -1.9375l-0.0625 -2.28125q-2.109375 2.703125 -5.46875 4.171875q-3.359375 1.46875 -6.828125 1.46875q-3.0 0 -5.4375 -1.28125q-2.421875 -1.296875 -3.78125 -3.484375q-1.34375 -2.1875 -1.34375 -4.828125zm20.9375 2.40625q0.65625 -0.84375 1.015625 -1.625q0.359375 -0.78125 0.359375 -1.375l0 -4.5625q-2.03125 -0.78125 -4.234375 -1.203125q-2.1875 -0.421875 -4.40625 -0.421875q-4.375 0 -7.078125 1.75q-2.703125 1.734375 -2.703125 4.734375q0 1.734375 0.90625 3.265625q0.90625 1.53125 2.640625 2.53125q1.734375 0.984375 4.078125 0.984375q2.9375 0 5.484375 -1.140625q2.5625 -1.140625 3.9375 -2.9375zm13.981201 -6.3125l0 -18.359375l4.078125 0l0 17.640625q0 5.34375 1.828125 7.984375q1.828125 2.640625 5.4375 2.640625q2.390625 0 4.640625 -1.046875q2.25 -1.046875 3.984375 -3.0q1.75 -1.953125 2.640625 -4.53125l0 -19.6875l4.09375 0l0 26.34375q0 0.84375 0.359375 1.234375q0.359375 0.390625 1.078125 0.453125l0 3.234375q-0.71875 0.0625 -1.140625 0.09375q-0.421875 0.03125 -0.78125 0.03125q-1.203125 -0.125 -2.078125 -0.96875q-0.859375 -0.84375 -0.921875 -2.03125l-0.125 -4.203125q-2.03125 3.59375 -5.546875 5.640625q-3.515625 2.03125 -7.59375 2.03125q-4.921875 0 -7.4375 -3.40625q-2.515625 -3.421875 -2.515625 -10.09375zm36.12436 -30.890625l4.078125 0l0 36.71875q0 2.34375 0.828125 3.0625q0.84375 0.71875 2.046875 0.71875q1.078125 0 2.15625 -0.234375q1.078125 -0.25 1.859375 -0.484375l0.71875 3.296875q-1.140625 0.484375 -2.796875 0.78125q-1.640625 0.296875 -2.84375 0.296875q-2.75 0 -4.40625 -1.609375q-1.640625 -1.625 -1.640625 -4.453125l0 -38.09375zm31.132477 42.296875q-0.484375 0.1875 -1.5 0.671875q-1.015625 0.46875 -2.46875 0.828125q-1.4375 0.359375 -3.109375 0.359375q-1.734375 0 -3.265625 -0.65625q-1.53125 -0.65625 -2.4375 -2.0q-0.90625 -1.359375 -0.90625 -3.34375l0 -22.375l-4.3125 0l0 -3.25l4.3125 0l0 -10.546875l4.09375 0l0 10.546875l7.1875 0l0 3.25l-7.1875 0l0 21.234375q0.109375 1.6875 1.21875 2.53125q1.109375 0.828125 2.5625 0.828125q1.671875 0 3.046875 -0.5625q1.390625 -0.578125 1.6875 -0.8125l1.078125 3.296875zm17.884338 -7.5q0 -2.9375 1.671875 -5.0625q1.6875 -2.140625 4.65625 -3.3125q2.96875 -1.171875 6.875 -1.171875q2.265625 0 4.71875 0.375q2.46875 0.359375 4.390625 1.078125l0 -2.640625q0 -3.96875 -2.34375 -6.296875q-2.328125 -2.34375 -6.46875 -2.34375q-2.53125 0 -4.96875 0.9375q-2.421875 0.921875 -5.0625 2.71875l-1.546875 -2.875q3.046875 -2.109375 5.984375 -3.15625q2.953125 -1.046875 6.015625 -1.046875q5.75 0 9.109375 3.296875q3.359375 3.296875 3.359375 9.125l0 14.453125q0 0.84375 0.359375 1.234375q0.359375 0.390625 1.140625 0.453125l0 3.234375q-0.65625 0.0625 -1.140625 0.125q-0.46875 0.0625 -0.71875 0q-1.5 -0.0625 -2.28125 -0.953125q-0.78125 -0.90625 -0.828125 -1.9375l-0.0625 -2.28125q-2.109375 2.703125 -5.46875 4.171875q-3.359375 1.46875 -6.828125 1.46875q-3.0 0 -5.4375 -1.28125q-2.421875 -1.296875 -3.78125 -3.484375q-1.34375 -2.1875 -1.34375 -4.828125zm20.9375 2.40625q0.65625 -0.84375 1.015625 -1.625q0.359375 -0.78125 0.359375 -1.375l0 -4.5625q-2.03125 -0.78125 -4.234375 -1.203125q-2.1875 -0.421875 -4.40625 -0.421875q-4.375 0 -7.078125 1.75q-2.703125 1.734375 -2.703125 4.734375q0 1.734375 0.90625 3.265625q0.90625 1.53125 2.640625 2.53125q1.734375 0.984375 4.078125 0.984375q2.9375 0 5.484375 -1.140625q2.5625 -1.140625 3.9375 -2.9375zm30.231232 7.1875q-3.890625 0 -6.984375 -2.03125q-3.09375 -2.046875 -4.890625 -5.046875l0 19.265625l-4.078125 0l0 -44.046875l3.65625 0l0 6.0625q1.859375 -2.9375 4.984375 -4.765625q3.125 -1.828125 6.65625 -1.828125q3.25 0 5.9375 1.359375q2.703125 1.34375 4.6875 3.625q1.984375 2.265625 3.09375 5.1875q1.109375 2.90625 1.109375 6.03125q0 4.375 -1.78125 8.0625q-1.765625 3.6875 -4.953125 5.90625q-3.171875 2.21875 -7.4375 2.21875zm-1.140625 -3.59375q2.59375 0 4.625 -1.046875q2.046875 -1.046875 3.515625 -2.84375q1.46875 -1.8125 2.25 -4.0625q0.78125 -2.25 0.78125 -4.640625q0 -2.53125 -0.875 -4.8125q-0.875 -2.28125 -2.5 -4.015625q-1.609375 -1.734375 -3.71875 -2.75q-2.09375 -1.03125 -4.546875 -1.03125q-1.5625 0 -3.25 0.609375q-1.671875 0.59375 -3.203125 1.703125q-1.53125 1.109375 -2.5625 2.5q-1.015625 1.375 -1.25 2.9375l0 9.59375q0.96875 2.21875 2.578125 4.0q1.625 1.765625 3.75 2.8125q2.140625 1.046875 4.40625 1.046875zm38.160583 3.59375q-3.890625 0 -6.984375 -2.03125q-3.09375 -2.046875 -4.890625 -5.046875l0 19.265625l-4.078125 0l0 -44.046875l3.65625 0l0 6.0625q1.859375 -2.9375 4.984375 -4.765625q3.125 -1.828125 6.65625 -1.828125q3.25 0 5.9375 1.359375q2.703125 1.34375 4.6875 3.625q1.984375 2.265625 3.09375 5.1875q1.109375 2.90625 1.109375 6.03125q0 4.375 -1.78125 8.0625q-1.765625 3.6875 -4.953125 5.90625q-3.171875 2.21875 -7.4375 2.21875zm-1.140625 -3.59375q2.59375 0 4.625 -1.046875q2.046875 -1.046875 3.515625 -2.84375q1.46875 -1.8125 2.25 -4.0625q0.78125 -2.25 0.78125 -4.640625q0 -2.53125 -0.875 -4.8125q-0.875 -2.28125 -2.5 -4.015625q-1.609375 -1.734375 -3.71875 -2.75q-2.09375 -1.03125 -4.546875 -1.03125q-1.5625 0 -3.25 0.609375q-1.671875 0.59375 -3.203125 1.703125q-1.53125 1.109375 -2.5625 2.5q-1.015625 1.375 -1.25 2.9375l0 9.59375q0.96875 2.21875 2.578125 4.0q1.625 1.765625 3.75 2.8125q2.140625 1.046875 4.40625 1.046875zm32.473083 3.59375q-3.84375 0 -7.15625 -1.25q-3.296875 -1.265625 -5.6875 -3.84375l1.671875 -2.875q2.640625 2.453125 5.3125 3.5625q2.671875 1.109375 5.671875 1.109375q3.65625 0 5.9375 -1.46875q2.2812195 -1.46875 2.2812195 -4.234375q0 -1.859375 -1.1093445 -2.84375q-1.109375 -0.984375 -3.1875 -1.609375q-2.0625 -0.640625 -4.9375 -1.359375q-3.25 -0.90625 -5.4375 -1.890625q-2.1875 -0.984375 -3.296875 -2.515625q-1.109375 -1.53125 -1.109375 -4.0q0 -3.0625 1.53125 -5.0625q1.53125 -2.015625 4.203125 -3.0625q2.671875 -1.046875 5.96875 -1.046875q3.59375 0 6.359375 1.140625q2.7655945 1.140625 4.4999695 3.171875l-1.984375 2.765625q-1.671875 -1.921875 -3.9843445 -2.84375q-2.3125 -0.9375 -5.125 -0.9375q-1.921875 0 -3.671875 0.515625q-1.734375 0.5 -2.84375 1.671875q-1.109375 1.171875 -1.109375 3.21875q0 1.671875 0.828125 2.609375q0.84375 0.921875 2.515625 1.5625q1.6875 0.625 4.15625 1.34375q3.53125 0.953125 6.171875 1.953125q2.6405945 0.984375 4.0780945 2.546875q1.453125 1.5625 1.453125 4.375q0 4.390625 -3.3125 6.84375q-3.2968445 2.453125 -8.6874695 2.453125zm49.014313 -2.09375q-0.484375 0.1875 -1.5 0.671875q-1.015625 0.46875 -2.46875 0.828125q-1.4375 0.359375 -3.109375 0.359375q-1.734375 0 -3.265625 -0.65625q-1.53125 -0.65625 -2.4375 -2.0q-0.90625 -1.359375 -0.90625 -3.34375l0 -22.375l-4.3125 0l0 -3.25l4.3125 0l0 -10.546875l4.09375 0l0 10.546875l7.1875 0l0 3.25l-7.1875 0l0 21.234375q0.109375 1.6875 1.21875 2.53125q1.109375 0.828125 2.5625 0.828125q1.671875 0 3.046875 -0.5625q1.390625 -0.578125 1.6875 -0.8125l1.078125 3.296875zm31.381226 1.5l-4.078125 0l0 -17.453125q0 -5.28125 -1.859375 -7.953125q-1.859375 -2.671875 -5.34375 -2.671875q-2.28125 0 -4.53125 1.171875q-2.25 1.171875 -3.96875 3.1875q-1.703125 2.0 -2.421875 4.578125l0 19.140625l-4.078125 0l0 -43.796875l4.078125 0l0 19.609375q1.859375 -3.46875 5.1875 -5.53125q3.328125 -2.078125 7.109375 -2.078125q2.703125 0 4.59375 0.96875q1.890625 0.953125 3.0625 2.78125q1.171875 1.828125 1.703125 4.265625q0.546875 2.421875 0.546875 5.484375l0 18.296875zm6.1831055 -9.0q0 -2.9375 1.671875 -5.0625q1.6875 -2.140625 4.65625 -3.3125q2.96875 -1.171875 6.875 -1.171875q2.265625 0 4.71875 0.375q2.46875 0.359375 4.390625 1.078125l0 -2.640625q0 -3.96875 -2.34375 -6.296875q-2.328125 -2.34375 -6.46875 -2.34375q-2.53125 0 -4.96875 0.9375q-2.421875 0.921875 -5.0625 2.71875l-1.546875 -2.875q3.046875 -2.109375 5.984375 -3.15625q2.953125 -1.046875 6.015625 -1.046875q5.75 0 9.109375 3.296875q3.359375 3.296875 3.359375 9.125l0 14.453125q0 0.84375 0.359375 1.234375q0.359375 0.390625 1.140625 0.453125l0 3.234375q-0.65625 0.0625 -1.140625 0.125q-0.46875 0.0625 -0.71875 0q-1.5 -0.0625 -2.28125 -0.953125q-0.78125 -0.90625 -0.828125 -1.9375l-0.0625 -2.28125q-2.109375 2.703125 -5.46875 4.171875q-3.359375 1.46875 -6.828125 1.46875q-3.0 0 -5.4375 -1.28125q-2.421875 -1.296875 -3.78125 -3.484375q-1.34375 -2.1875 -1.34375 -4.828125zm20.9375 2.40625q0.65625 -0.84375 1.015625 -1.625q0.359375 -0.78125 0.359375 -1.375l0 -4.5625q-2.03125 -0.78125 -4.234375 -1.203125q-2.1875 -0.421875 -4.40625 -0.421875q-4.375 0 -7.078125 1.75q-2.703125 1.734375 -2.703125 4.734375q0 1.734375 0.90625 3.265625q0.90625 1.53125 2.640625 2.53125q1.734375 0.984375 4.078125 0.984375q2.9375 0 5.484375 -1.140625q2.5625 -1.140625 3.9375 -2.9375zm29.038086 5.09375q-0.484375 0.1875 -1.5 0.671875q-1.015625 0.46875 -2.46875 0.828125q-1.4375 0.359375 -3.109375 0.359375q-1.734375 0 -3.265625 -0.65625q-1.53125 -0.65625 -2.4375 -2.0q-0.90625 -1.359375 -0.90625 -3.34375l0 -22.375l-4.3125 0l0 -3.25l4.3125 0l0 -10.546875l4.09375 0l0 10.546875l7.1875 0l0 3.25l-7.1875 0l0 21.234375q0.109375 1.6875 1.21875 2.53125q1.109375 0.828125 2.5625 0.828125q1.671875 0 3.046875 -0.5625q1.390625 -0.578125 1.6875 -0.8125l1.078125 3.296875zm33.962463 2.09375q-3.421875 0 -6.28125 -1.28125q-2.84375 -1.296875 -4.96875 -3.578125q-2.125 -2.28125 -3.296875 -5.21875q-1.171875 -2.9375 -1.171875 -6.234375q0 -4.4375 1.96875 -8.09375q1.984375 -3.671875 5.515625 -5.828125q3.546875 -2.15625 8.171875 -2.15625q4.375 0 7.734375 2.015625q3.359375 2.0 4.984375 5.421875l-3.953125 1.265625q-1.328125 -2.40625 -3.703125 -3.75q-2.359375 -1.359375 -5.25 -1.359375q-3.109375 0 -5.6875 1.625q-2.578125 1.625 -4.109375 4.453125q-1.53125 2.8125 -1.53125 6.40625q0 3.53125 1.546875 6.421875q1.5625 2.875 4.140625 4.59375q2.59375 1.703125 5.703125 1.703125q2.046875 0 3.9375 -0.71875q1.890625 -0.71875 3.296875 -1.953125q1.40625 -1.234375 1.890625 -2.671875l4.015625 1.203125q-0.828125 2.21875 -2.78125 4.0q-1.953125 1.765625 -4.5625 2.75q-2.609375 0.984375 -5.609375 0.984375zm16.861816 -9.59375q0 -2.9375 1.671875 -5.0625q1.6875 -2.140625 4.65625 -3.3125q2.96875 -1.171875 6.875 -1.171875q2.265625 0 4.71875 0.375q2.46875 0.359375 4.390625 1.078125l0 -2.640625q0 -3.96875 -2.34375 -6.296875q-2.328125 -2.34375 -6.46875 -2.34375q-2.53125 0 -4.96875 0.9375q-2.421875 0.921875 -5.0625 2.71875l-1.546875 -2.875q3.046875 -2.109375 5.984375 -3.15625q2.953125 -1.046875 6.015625 -1.046875q5.75 0 9.109375 3.296875q3.359375 3.296875 3.359375 9.125l0 14.453125q0 0.84375 0.359375 1.234375q0.359375 0.390625 1.140625 0.453125l0 3.234375q-0.65625 0.0625 -1.140625 0.125q-0.46875 0.0625 -0.71875 0q-1.5 -0.0625 -2.28125 -0.953125q-0.78125 -0.90625 -0.828125 -1.9375l-0.0625 -2.28125q-2.109375 2.703125 -5.46875 4.171875q-3.359375 1.46875 -6.828125 1.46875q-3.0 0 -5.4375 -1.28125q-2.421875 -1.296875 -3.78125 -3.484375q-1.34375 -2.1875 -1.34375 -4.828125zm20.9375 2.40625q0.65625 -0.84375 1.015625 -1.625q0.359375 -0.78125 0.359375 -1.375l0 -4.5625q-2.03125 -0.78125 -4.234375 -1.203125q-2.1875 -0.421875 -4.40625 -0.421875q-4.375 0 -7.078125 1.75q-2.703125 1.734375 -2.703125 4.734375q0 1.734375 0.90625 3.265625q0.90625 1.53125 2.640625 2.53125q1.734375 0.984375 4.078125 0.984375q2.9375 0 5.484375 -1.140625q2.5625 -1.140625 3.9375 -2.9375zm40.559326 6.59375l-4.078125 0l0 -17.453125q0 -5.53125 -1.625 -8.078125q-1.625 -2.546875 -5.09375 -2.546875q-2.40625 0 -4.75 1.171875q-2.328125 1.171875 -4.109375 3.1875q-1.765625 2.0 -2.546875 4.578125l0 19.140625l-4.078125 0l0 -31.265625l3.71875 0l0 7.078125q1.265625 -2.265625 3.296875 -3.96875q2.046875 -1.71875 4.625 -2.671875q2.578125 -0.96875 5.34375 -0.96875q2.578125 0 4.375 0.96875q1.796875 0.953125 2.875 2.71875q1.078125 1.765625 1.5625 4.265625q0.484375 2.484375 0.484375 5.546875l0 18.296875zm34.97998 0l-4.078125 0l0 -17.453125q0 -5.53125 -1.625 -8.078125q-1.625 -2.546875 -5.09375 -2.546875q-2.40625 0 -4.75 1.171875q-2.328125 1.171875 -4.109375 3.1875q-1.765625 2.0 -2.546875 4.578125l0 19.140625l-4.078125 0l0 -31.265625l3.71875 0l0 7.078125q1.265625 -2.265625 3.296875 -3.96875q2.046875 -1.71875 4.625 -2.671875q2.578125 -0.96875 5.34375 -0.96875q2.578125 0 4.375 0.96875q1.796875 0.953125 2.875 2.71875q1.078125 1.765625 1.5625 4.265625q0.484375 2.484375 0.484375 5.546875l0 18.296875zm22.01123 0.59375q-3.359375 0 -6.203125 -1.28125q-2.84375 -1.296875 -4.921875 -3.546875q-2.0625 -2.25 -3.203125 -5.15625q-1.140625 -2.90625 -1.140625 -6.15625q0 -3.359375 1.140625 -6.265625q1.140625 -2.90625 3.234375 -5.15625q2.09375 -2.25 4.9375 -3.53125q2.859375 -1.296875 6.21875 -1.296875q3.359375 0 6.171875 1.296875q2.828125 1.28125 4.921875 3.53125q2.109375 2.25 3.25 5.15625q1.140625 2.90625 1.140625 6.265625q0 3.25 -1.140625 6.15625q-1.140625 2.90625 -3.21875 5.15625q-2.0625 2.25 -4.921875 3.546875q-2.84375 1.28125 -6.265625 1.28125zm-11.328125 -16.078125q0 3.484375 1.53125 6.34375q1.53125 2.84375 4.109375 4.5q2.578125 1.640625 5.6875 1.640625q3.125 0 5.703125 -1.671875q2.578125 -1.6875 4.140625 -4.59375q1.5625 -2.921875 1.5625 -6.328125q0 -3.484375 -1.5625 -6.359375q-1.5625 -2.890625 -4.140625 -4.5625q-2.578125 -1.6875 -5.703125 -1.6875q-3.109375 0 -5.671875 1.75q-2.546875 1.734375 -4.109375 4.59375q-1.546875 2.84375 -1.546875 6.375zm48.235596 13.984375q-0.484375 0.1875 -1.5 0.671875q-1.015625 0.46875 -2.46875 0.828125q-1.4375 0.359375 -3.109375 0.359375q-1.734375 0 -3.265625 -0.65625q-1.53125 -0.65625 -2.4375 -2.0q-0.90625 -1.359375 -0.90625 -3.34375l0 -22.375l-4.3125 0l0 -3.25l4.3125 0l0 -10.546875l4.09375 0l0 10.546875l7.1875 0l0 3.25l-7.1875 0l0 21.234375q0.109375 1.6875 1.21875 2.53125q1.109375 0.828125 2.5625 0.828125q1.671875 0 3.046875 -0.5625q1.390625 -0.578125 1.6875 -0.8125l1.078125 3.296875z" fill-rule="nonzero"/><path fill="#fb8c00" d="m58.51867 285.96017q-3.65625 0 -6.78125 -1.890625q-3.109375 -1.890625 -4.859375 -4.765625l0 6.0625l-3.65625 0l0 -43.79689l4.078125 0l0 19.07814q2.109375 -3.1875 5.046875 -5.1250153q2.9375 -1.953125 6.828125 -1.953125q3.3125 0 5.921875 1.375q2.609375 1.3750153 4.46875 3.6875153q1.859375 2.3125 2.8125 5.234375q0.96875 2.90625 0.96875 5.953125q0 3.3125 -1.109375 6.1875q-1.109375 2.875 -3.15625 5.125q-2.046875 2.25 -4.71875 3.546875q-2.65625 1.28125 -5.84375 1.28125zm-0.953125 -3.59375q2.515625 0 4.671875 -1.015625q2.171875 -1.03125 3.71875 -2.828125q1.5625 -1.796875 2.40625 -4.046875q0.84375 -2.25 0.84375 -4.65625q0 -3.296875 -1.421875 -6.203125q-1.40625 -2.90625 -3.890625 -4.671875q-2.484375 -1.78125 -5.859375 -1.78125q-2.390625 0 -4.46875 1.078125q-2.0625 1.078125 -3.65625 2.859375q-1.59375 1.765625 -2.609375 3.859375l0 9.71875q0.234375 1.625 1.25 3.046875q1.03125 1.40625 2.5625 2.421875q1.53125 1.015625 3.203125 1.625q1.6875 0.59375 3.25 0.59375zm36.17621 3.59375q-3.359375 0 -6.25 -1.28125q-2.875 -1.296875 -4.96875 -3.546875q-2.09375 -2.25 -3.265625 -5.1875q-1.171875 -2.9375 -1.171875 -6.296875q0 -4.375 2.0 -8.03125q2.015625 -3.671875 5.546875 -5.8593903q3.546875 -2.1875 8.046875 -2.1875q4.625 0 8.0625 2.21875q3.453125 2.2187653 5.4375 5.8593903q1.984375 3.625 1.984375 7.9375q0 0.484375 0 0.9375q0 0.4375 -0.0625 0.6875l-26.765625 0q0.3125 3.359375 1.890625 5.96875q1.59375 2.609375 4.140625 4.140625q2.5625 1.53125 5.5625 1.53125q3.046875 0 5.78125 -1.5625q2.734375 -1.5625 3.8125 -4.078125l3.53125 0.953125q-0.953125 2.21875 -2.9375 4.03125q-1.96875 1.796875 -4.640625 2.78125q-2.671875 0.984375 -5.734375 0.984375zm-11.515625 -17.6875l23.09375 0q-0.234375 -3.421875 -1.828125 -6.0q-1.59375 -2.59375 -4.140625 -4.0625q-2.546875 -1.46875 -5.609375 -1.46875q-3.0625 0 -5.578125 1.46875q-2.515625 1.46875 -4.109375 4.09375q-1.59375 2.609375 -1.828125 5.96875zm64.129326 -10.5625q-4.078125 0.109375 -7.171875 2.28125q-3.078125 2.15625 -4.34375 5.9375l0 19.4375l-4.078125 0l0 -31.26564l3.84375 0l0 7.5000153q1.609375 -3.296875 4.28125 -5.328125q2.671875 -2.0468903 5.671875 -2.2812653q0.609375 -0.0625 1.046875 -0.0625q0.453125 0 0.75 0.0625l0 3.7187653zm18.006226 28.25q-3.359375 0 -6.25 -1.28125q-2.875 -1.296875 -4.96875 -3.546875q-2.09375 -2.25 -3.265625 -5.1875q-1.171875 -2.9375 -1.171875 -6.296875q0 -4.375 2.0 -8.03125q2.015625 -3.671875 5.546875 -5.8593903q3.546875 -2.1875 8.046875 -2.1875q4.625 0 8.0625 2.21875q3.453125 2.2187653 5.4375 5.8593903q1.984375 3.625 1.984375 7.9375q0 0.484375 0 0.9375q0 0.4375 -0.0625 0.6875l-26.765625 0q0.3125 3.359375 1.890625 5.96875q1.59375 2.609375 4.140625 4.140625q2.5625 1.53125 5.5625 1.53125q3.046875 0 5.78125 -1.5625q2.734375 -1.5625 3.8125 -4.078125l3.53125 0.953125q-0.953125 2.21875 -2.9375 4.03125q-1.96875 1.796875 -4.640625 2.78125q-2.671875 0.984375 -5.734375 0.984375zm-11.515625 -17.6875l23.09375 0q-0.234375 -3.421875 -1.828125 -6.0q-1.59375 -2.59375 -4.140625 -4.0625q-2.546875 -1.46875 -5.609375 -1.46875q-3.0625 0 -5.578125 1.46875q-2.515625 1.46875 -4.109375 4.09375q-1.59375 2.609375 -1.828125 5.96875zm79.735596 17.09375l-4.078125 0l0 -17.453125q0 -5.46875 -1.75 -8.046875q-1.734375 -2.578125 -5.15625 -2.578125q-3.53125 0 -6.328125 2.515625q-2.78125 2.515625 -3.921875 6.484375l0 19.078125l-4.078125 0l0 -17.453125q0 -5.53125 -1.6875 -8.078125q-1.6875 -2.546875 -5.15625 -2.546875q-3.484375 0 -6.3125 2.46875q-2.8125 2.453125 -3.953125 6.46875l0 19.140625l-4.078125 0l0 -31.26564l3.71875 0l0 7.0781403q1.984375 -3.65625 5.0625 -5.6250153q3.09375 -1.984375 6.875 -1.984375q3.90625 0 6.296875 2.21875q2.40625 2.2187653 2.953125 5.8125153q2.15625 -3.953125 5.1875 -5.9843903q3.03125 -2.046875 6.859375 -2.046875q2.640625 0 4.46875 0.96875q1.84375 0.953125 2.953125 2.7187653q1.109375 1.765625 1.609375 4.265625q0.515625 2.484375 0.515625 5.546875l0 18.296875zm21.952454 0.59375q-3.359375 0 -6.203125 -1.28125q-2.84375 -1.296875 -4.921875 -3.546875q-2.0625 -2.25 -3.203125 -5.15625q-1.140625 -2.90625 -1.140625 -6.15625q0 -3.359375 1.140625 -6.265625q1.140625 -2.90625 3.234375 -5.15625q2.09375 -2.25 4.9375 -3.5312653q2.859375 -1.296875 6.21875 -1.296875q3.3593903 0 6.1718903 1.296875q2.828125 1.2812653 4.921875 3.5312653q2.109375 2.25 3.25 5.15625q1.140625 2.90625 1.140625 6.265625q0 3.25 -1.140625 6.15625q-1.140625 2.90625 -3.21875 5.15625q-2.0625 2.25 -4.921875 3.546875q-2.84375 1.28125 -6.2656403 1.28125zm-11.328125 -16.078125q0 3.484375 1.53125 6.34375q1.53125 2.84375 4.109375 4.5q2.578125 1.640625 5.6875 1.640625q3.1250153 0 5.7031403 -1.671875q2.578125 -1.6875 4.140625 -4.59375q1.5625 -2.921875 1.5625 -6.328125q0 -3.484375 -1.5625 -6.359375q-1.5625 -2.890625 -4.140625 -4.5625q-2.578125 -1.6875 -5.7031403 -1.6875q-3.109375 0 -5.671875 1.75q-2.546875 1.734375 -4.109375 4.59375q-1.546875 2.84375 -1.546875 6.375zm41.93248 15.484375l-12.65625 -31.26564l4.265625 0l10.671875 27.187515l10.734375 -27.187515l4.03125 0l-12.65625 31.26564l-4.390625 0zm35.10309 0.59375q-3.359375 0 -6.25 -1.28125q-2.875 -1.296875 -4.96875 -3.546875q-2.09375 -2.25 -3.265625 -5.1875q-1.171875 -2.9375 -1.171875 -6.296875q0 -4.375 2.0 -8.03125q2.015625 -3.671875 5.546875 -5.8593903q3.546875 -2.1875 8.046875 -2.1875q4.625 0 8.0625 2.21875q3.453125 2.2187653 5.4375 5.8593903q1.984375 3.625 1.984375 7.9375q0 0.484375 0 0.9375q0 0.4375 -0.0625 0.6875l-26.765625 0q0.3125 3.359375 1.890625 5.96875q1.59375 2.609375 4.140625 4.140625q2.5625 1.53125 5.5625 1.53125q3.046875 0 5.78125 -1.5625q2.734375 -1.5625 3.8125 -4.078125l3.53125 0.953125q-0.953125 2.21875 -2.9375 4.03125q-1.96875 1.796875 -4.640625 2.78125q-2.671875 0.984375 -5.734375 0.984375zm-11.515625 -17.6875l23.09375 0q-0.234375 -3.421875 -1.828125 -6.0q-1.59375 -2.59375 -4.140625 -4.0625q-2.546875 -1.46875 -5.609375 -1.46875q-3.0625 0 -5.578125 1.46875q-2.515625 1.46875 -4.109375 4.09375q-1.59375 2.609375 -1.828125 5.96875zm31.141846 1.546875q0 -4.4375 1.828125 -8.125q1.828125 -3.6875 5.0625 -5.9062653q3.25 -2.21875 7.390625 -2.21875q3.890625 0 6.984375 2.078125q3.09375 2.0625153 4.828125 5.0000153l0 -19.07814l4.078125 0l0 38.875015q0 0.84375 0.359375 1.234375q0.359375 0.390625 1.078125 0.453125l0 3.234375q-1.203125 0.1875 -1.859375 0.125q-1.25 -0.0625 -2.21875 -1.015625q-0.953125 -0.96875 -0.953125 -2.109375l0 -3.0625q-1.859375 3.0625 -5.046875 4.859375q-3.171875 1.796875 -6.59375 1.796875q-3.25 0 -5.984375 -1.3125q-2.71875 -1.328125 -4.734375 -3.59375q-2.0 -2.28125 -3.109375 -5.1875q-1.109375 -2.921875 -1.109375 -6.046875zm26.09375 4.8125l0 -9.671875q-0.78125 -2.15625 -2.53125 -3.921875q-1.734375 -1.765625 -3.921875 -2.8125q-2.1875 -1.0625 -4.34375 -1.0625q-2.515625 0 -4.5625 1.0625q-2.046875 1.046875 -3.515625 2.84375q-1.46875 1.796875 -2.25 4.078125q-0.78125 2.28125 -0.78125 4.671875q0 2.53125 0.875 4.8125q0.875 2.28125 2.484375 4.046875q1.625 1.765625 3.71875 2.734375q2.109375 0.953125 4.5625 0.953125q1.5625 0 3.234375 -0.59375q1.6875 -0.609375 3.21875 -1.65625q1.53125 -1.046875 2.546875 -2.484375q1.03125 -1.453125 1.265625 -3.0zm18.054352 -1.390625q0 -2.640625 0.5625 -4.53125q0.578125 -1.890625 1.6875 -3.265625q1.109375 -1.375 2.859375 -2.390625q1.140625 -0.734375 2.609375 -1.5q1.46875 -0.78125 2.75 -1.828125q1.296875 -1.0625 2.140625 -2.59375q0.84375 -1.5312653 0.84375 -3.6875153q0 -2.640625 -1.171875 -4.34375q-1.171875 -1.71875 -3.03125 -2.578125q-1.859375 -0.875 -3.96875 -0.875q-2.09375 0 -3.984375 0.8125q-1.890625 0.8125 -3.328125 2.1875q-1.4375 1.375 -2.34375 3.125l-2.8125 -1.8125q1.140625 -2.453125 3.078125 -4.1875q1.953125 -1.75 4.40625 -2.640625q2.46875 -0.90625 5.046875 -0.90625q2.21875 0 4.3125 0.6875q2.109375 0.6875 3.75 2.140625q1.65625 1.4375 2.640625 3.5625q1.0 2.125 1.0 5.0625q0 2.4062653 -0.671875 4.0625153q-0.65625 1.640625 -1.828125 2.8125q-1.15625 1.171875 -2.609375 2.078125q-1.4375 0.890625 -2.984375 1.734375q-1.390625 0.78125 -2.65625 1.75q-1.25 0.953125 -2.03125 2.609375q-0.78125 1.640625 -0.78125 4.515625l-3.484375 0zm0.0625 12.125l0 -6.421875l3.546875 0l0 6.421875l-3.546875 0z" fill-rule="nonzero"/><path fill="#000000" fill-opacity="0.0" d="m7.367454 439.18634l944.56696 0l0 86.2677l-944.56696 0z" fill-rule="evenodd"/><path fill="#ffffff" d="m315.27756 506.3801q-3.421875 0 -6.28125 -1.28125q-2.84375 -1.296875 -4.96875 -3.578125q-2.125 -2.28125 -3.296875 -5.21875q-1.171875 -2.9375 -1.171875 -6.234375q0 -4.4375 1.96875 -8.09375q1.984375 -3.671875 5.515625 -5.828125q3.546875 -2.15625 8.171875 -2.15625q4.375 0 7.734375 2.015625q3.359375 2.0 4.984375 5.421875l-3.953125 1.265625q-1.328125 -2.40625 -3.703125 -3.75q-2.359375 -1.359375 -5.25 -1.359375q-3.109375 0 -5.6875 1.625q-2.578125 1.625 -4.109375 4.453125q-1.53125 2.8125 -1.53125 6.40625q0 3.53125 1.546875 6.421875q1.5625 2.875 4.140625 4.59375q2.59375 1.703125 5.703125 1.703125q2.046875 0 3.9375 -0.71875q1.890625 -0.71875 3.296875 -1.953125q1.40625 -1.234375 1.890625 -2.671875l4.015625 1.203125q-0.828125 2.21875 -2.78125 4.0q-1.953125 1.765625 -4.5625 2.75q-2.609375 0.984375 -5.609375 0.984375zm16.861847 -9.59375q0 -2.9375 1.671875 -5.0625q1.6875 -2.140625 4.65625 -3.3125q2.96875 -1.171875 6.875 -1.171875q2.265625 0 4.71875 0.375q2.46875 0.359375 4.390625 1.078125l0 -2.640625q0 -3.96875 -2.34375 -6.296875q-2.328125 -2.34375 -6.46875 -2.34375q-2.53125 0 -4.96875 0.9375q-2.421875 0.921875 -5.0625 2.71875l-1.546875 -2.875q3.046875 -2.109375 5.984375 -3.15625q2.953125 -1.046875 6.015625 -1.046875q5.75 0 9.109375 3.296875q3.359375 3.296875 3.359375 9.125l0 14.453125q0 0.84375 0.359375 1.234375q0.359375 0.390625 1.140625 0.453125l0 3.234375q-0.65625 0.0625 -1.140625 0.125q-0.46875 0.0625 -0.71875 0q-1.5 -0.0625 -2.28125 -0.953125q-0.78125 -0.90625 -0.828125 -1.9375l-0.0625 -2.28125q-2.109375 2.703125 -5.46875 4.171875q-3.359375 1.46875 -6.828125 1.46875q-3.0 0 -5.4375 -1.28125q-2.421875 -1.296875 -3.78125 -3.484375q-1.34375 -2.1875 -1.34375 -4.828125zm20.9375 2.40625q0.65625 -0.84375 1.015625 -1.625q0.359375 -0.78125 0.359375 -1.375l0 -4.5625q-2.03125 -0.78125 -4.234375 -1.203125q-2.1875 -0.421875 -4.40625 -0.421875q-4.375 0 -7.078125 1.75q-2.703125 1.734375 -2.703125 4.734375q0 1.734375 0.90625 3.265625q0.90625 1.53125 2.640625 2.53125q1.734375 0.984375 4.078125 0.984375q2.9375 0 5.484375 -1.140625q2.5625 -1.140625 3.9375 -2.9375zm40.559357 6.59375l-4.078125 0l0 -17.453125q0 -5.53125 -1.625 -8.078125q-1.625 -2.546875 -5.09375 -2.546875q-2.40625 0 -4.75 1.171875q-2.328125 1.171875 -4.109375 3.1875q-1.765625 2.0 -2.546875 4.578125l0 19.140625l-4.078125 0l0 -31.265625l3.71875 0l0 7.078125q1.265625 -2.265625 3.296875 -3.96875q2.046875 -1.71875 4.625 -2.671875q2.578125 -0.96875 5.34375 -0.96875q2.578125 0 4.375 0.96875q1.796875 0.953125 2.875 2.71875q1.078125 1.765625 1.5625 4.265625q0.484375 2.484375 0.484375 5.546875l0 18.296875zm61.67807 -31.265625l4.015625 0l-13.4375 31.265625l-3.53125 0l-6.546875 -15.546875l-6.484375 15.546875l-3.53125 0l-13.4375 -31.265625l3.953125 0l11.40625 27.0625l5.75 -14.09375l-5.28125 -12.90625l3.671875 0l3.953125 10.140625l4.015625 -10.140625l3.609375 0l-5.21875 12.90625l5.75 14.09375l11.34375 -27.0625zm21.840576 31.859375q-3.359375 0 -6.25 -1.28125q-2.875 -1.296875 -4.96875 -3.546875q-2.09375 -2.25 -3.265625 -5.1875q-1.171875 -2.9375 -1.171875 -6.296875q0 -4.375 2.0 -8.03125q2.015625 -3.671875 5.546875 -5.859375q3.546875 -2.1875 8.046875 -2.1875q4.625 0 8.0625 2.21875q3.453125 2.21875 5.4375 5.859375q1.984375 3.625 1.984375 7.9375q0 0.484375 0 0.9375q0 0.4375 -0.0625 0.6875l-26.765625 0q0.3125 3.359375 1.890625 5.96875q1.59375 2.609375 4.140625 4.140625q2.5625 1.53125 5.5625 1.53125q3.046875 0 5.78125 -1.5625q2.734375 -1.5625 3.8125 -4.078125l3.53125 0.953125q-0.953125 2.21875 -2.9375 4.03125q-1.96875 1.796875 -4.640625 2.78125q-2.671875 0.984375 -5.734375 0.984375zm-11.515625 -17.6875l23.09375 0q-0.234375 -3.421875 -1.828125 -6.0q-1.59375 -2.59375 -4.140625 -4.0625q-2.546875 -1.46875 -5.609375 -1.46875q-3.0625 0 -5.578125 1.46875q-2.515625 1.46875 -4.109375 4.09375q-1.59375 2.609375 -1.828125 5.96875zm58.801147 17.6875q-3.84375 0 -7.156189 -1.25q-3.296875 -1.265625 -5.6875 -3.84375l1.671875 -2.875q2.640625 2.453125 5.3125 3.5625q2.671814 1.109375 5.671814 1.109375q3.65625 0 5.9375 -1.46875q2.28125 -1.46875 2.28125 -4.234375q0 -1.859375 -1.109375 -2.84375q-1.109375 -0.984375 -3.1875 -1.609375q-2.0625 -0.640625 -4.9375 -1.359375q-3.25 -0.90625 -5.437439 -1.890625q-2.1875 -0.984375 -3.296875 -2.515625q-1.109375 -1.53125 -1.109375 -4.0q0 -3.0625 1.53125 -5.0625q1.53125 -2.015625 4.203125 -3.0625q2.671814 -1.046875 5.968689 -1.046875q3.59375 0 6.359375 1.140625q2.765625 1.140625 4.5 3.171875l-1.984375 2.765625q-1.671875 -1.921875 -3.984375 -2.84375q-2.3125 -0.9375 -5.125 -0.9375q-1.921875 0 -3.671875 0.515625q-1.734375 0.5 -2.843689 1.671875q-1.109375 1.171875 -1.109375 3.21875q0 1.671875 0.828125 2.609375q0.84375 0.921875 2.515564 1.5625q1.6875 0.625 4.15625 1.34375q3.53125 0.953125 6.171875 1.953125q2.640625 0.984375 4.078125 2.546875q1.453125 1.5625 1.453125 4.375q0 4.390625 -3.3125 6.84375q-3.296875 2.453125 -8.6875 2.453125zm33.714355 -2.09375q-0.484375 0.1875 -1.5 0.671875q-1.015625 0.46875 -2.46875 0.828125q-1.4375 0.359375 -3.109375 0.359375q-1.734375 0 -3.265625 -0.65625q-1.53125 -0.65625 -2.4375 -2.0q-0.90625 -1.359375 -0.90625 -3.34375l0 -22.375l-4.3125 0l0 -3.25l4.3125 0l0 -10.546875l4.09375 0l0 10.546875l7.1875 0l0 3.25l-7.1875 0l0 21.234375q0.109375 1.6875 1.21875 2.53125q1.109375 0.828125 2.5625 0.828125q1.671875 0 3.046875 -0.5625q1.390625 -0.578125 1.6875 -0.8125l1.078125 3.296875zm5.0999756 1.5l0 -31.265625l4.078125 0l0 31.265625l-4.078125 0zm0 -37.796875l0 -6.0l4.078125 0l0 6.0l-4.078125 0zm13.267456 -6.0l4.078125 0l0 36.71875q0 2.34375 0.828125 3.0625q0.84375 0.71875 2.046875 0.71875q1.078125 0 2.15625 -0.234375q1.078125 -0.25 1.859375 -0.484375l0.71875 3.296875q-1.140625 0.484375 -2.796875 0.78125q-1.640625 0.296875 -2.84375 0.296875q-2.75 0 -4.40625 -1.609375q-1.640625 -1.625 -1.640625 -4.453125l0 -38.09375zm16.320007 0l4.078125 0l0 36.71875q0 2.34375 0.828125 3.0625q0.84375 0.71875 2.046875 0.71875q1.078125 0 2.15625 -0.234375q1.078125 -0.25 1.859375 -0.484375l0.71875 3.296875q-1.140625 0.484375 -2.796875 0.78125q-1.640625 0.296875 -2.84375 0.296875q-2.75 0 -4.40625 -1.609375q-1.640625 -1.625 -1.640625 -4.453125l0 -38.09375zm16.788757 48.65625l1.03125 -5.046875l-1.390625 0l0 -5.6875l3.96875 0l0 5.6875l-1.5 5.046875l-2.109375 0z" fill-rule="nonzero"/><path fill="#fb8c00" d="m636.1497 501.64572q0 -0.359375 0.0625 -0.75q0.0625 -0.390625 0.125 -0.75l4.734375 -22.375l-4.140625 0l0.71875 -3.25l4.078125 0l2.28125 -10.546875l4.078125 0l-2.265625 10.546875l6.828125 0l-0.71875 3.25l-6.78125 0l-4.3125 20.328125q-0.1875 0.671875 -0.25 1.03125q-0.046875 0.359375 -0.046875 0.65625q0 1.3125 0.828125 1.953125q0.84375 0.625 2.046875 0.625q1.140625 0 2.09375 -0.296875q0.96875 -0.296875 1.71875 -0.59375q0.75 -0.3125 0.984375 -0.484375l0.359375 3.296875q-0.53125 0.296875 -1.625 0.78125q-1.078125 0.484375 -2.515625 0.78125q-1.4375 0.296875 -3.0625 0.296875q-2.21875 0 -3.71875 -1.109375q-1.5 -1.109375 -1.5 -3.390625zm23.525574 -27.125l3.84375 0l-1.625 7.5q2.34375 -3.359375 5.34375 -5.390625q3.0 -2.046875 6.0 -2.15625q0.484375 0 0.84375 0.03125q0.359375 0.015625 0.59375 0.078125l-0.78125 3.546875q-3.84375 0.109375 -7.265625 2.28125q-3.40625 2.15625 -5.390625 5.9375l-4.078125 19.4375l-4.078125 0l6.59375 -31.265625zm22.986267 31.859375q-7.328125 0 -7.328125 -8.03125q0 -1.203125 0.171875 -2.546875q0.1875 -1.359375 0.484375 -2.921875l3.96875 -18.359375l4.015625 0l-3.71875 17.640625q-0.59375 2.703125 -0.59375 4.6875q0 5.9375 5.15625 5.9375q2.28125 0 4.5625 -1.046875q2.28125 -1.046875 4.34375 -3.0q2.078125 -1.953125 3.453125 -4.53125l4.203125 -19.6875l4.078125 0l-5.46875 25.5q-0.0625 0.359375 -0.125 0.671875q-0.046875 0.296875 -0.046875 0.46875q0 1.03125 1.140625 1.03125l-0.78125 3.59375q-0.484375 0.0625 -0.90625 0.125q-0.421875 0.0625 -0.78125 0q-1.25 -0.0625 -1.921875 -0.6875q-0.65625 -0.640625 -0.65625 -1.65625q0 -0.296875 0.0625 -0.75q0.0625 -0.453125 0.234375 -1.40625q0.1875 -0.96875 0.546875 -2.703125q-2.765625 3.59375 -6.515625 5.640625q-3.75 2.03125 -7.578125 2.03125zm35.09308 0q-3.65625 0 -6.71875 -1.1875q-3.0625 -1.203125 -4.984375 -3.484375l2.40625 -2.765625q2.03125 2.15625 4.4375 3.1875q2.40625 1.015625 5.21875 1.015625q2.703125 0 4.734375 -0.8125q2.046875 -0.8125 3.21875 -2.28125q1.171875 -1.46875 1.171875 -3.453125q0 -2.265625 -1.953125 -3.1875q-1.953125 -0.9375 -5.671875 -1.96875q-2.8125 -0.84375 -4.734375 -1.59375q-1.921875 -0.75 -2.859375 -1.90625q-0.921875 -1.171875 -0.921875 -3.28125q0 -3.296875 1.765625 -5.65625q1.765625 -2.375 4.765625 -3.6875q3.0 -1.328125 6.71875 -1.328125q3.546875 0 6.0625 1.203125q2.53125 1.1875 3.90625 3.046875l-2.515625 2.40625q-1.265625 -1.796875 -3.25 -2.640625q-1.984375 -0.84375 -4.5625 -0.84375q-2.328125 0 -4.375 0.71875q-2.046875 0.71875 -3.28125 2.171875q-1.21875 1.4375 -1.21875 3.65625q0 1.984375 1.46875 2.796875q1.46875 0.796875 4.828125 1.703125q3.1875 0.890625 5.4375 1.828125q2.25 0.9375 3.390625 2.3125q1.140625 1.375 1.140625 3.65625q0 3.0625 -1.71875 5.40625q-1.703125 2.328125 -4.765625 3.65625q-3.0625 1.3125 -7.140625 1.3125zm20.454956 -4.734375q0 -0.359375 0.0625 -0.75q0.0625 -0.390625 0.125 -0.75l4.734375 -22.375l-4.140625 0l0.71875 -3.25l4.078125 0l2.28125 -10.546875l4.078125 0l-2.265625 10.546875l6.828125 0l-0.71875 3.25l-6.78125 0l-4.3125 20.328125q-0.1875 0.671875 -0.25 1.03125q-0.046875 0.359375 -0.046875 0.65625q0 1.3125 0.828125 1.953125q0.84375 0.625 2.046875 0.625q1.140625 0 2.09375 -0.296875q0.96875 -0.296875 1.71875 -0.59375q0.75 -0.3125 0.984375 -0.484375l0.359375 3.296875q-0.53125 0.296875 -1.625 0.78125q-1.078125 0.484375 -2.515625 0.78125q-1.4375 0.296875 -3.0625 0.296875q-2.21875 0 -3.71875 -1.109375q-1.5 -1.109375 -1.5 -3.390625z" fill-rule="nonzero"/><path fill="#fb8c00" d="m789.3946 504.28635q-0.484375 0.1875 -1.5 0.671875q-1.015625 0.46875 -2.46875 0.828125q-1.4375 0.359375 -3.109375 0.359375q-1.734375 0 -3.265625 -0.65625q-1.53125 -0.65625 -2.4375 -2.0q-0.90625 -1.359375 -0.90625 -3.34375l0 -22.375l-4.3125 0l0 -3.25l4.3125 0l0 -10.546875l4.09375 0l0 10.546875l7.1875 0l0 3.25l-7.1875 0l0 21.234375q0.109375 1.6875 1.21875 2.53125q1.109375 0.828125 2.5625 0.828125q1.671875 0 3.046875 -0.5625q1.390625 -0.578125 1.6875 -0.8125l1.078125 3.296875zm31.381226 1.5l-4.078125 0l0 -17.453125q0 -5.28125 -1.859375 -7.953125q-1.859375 -2.671875 -5.34375 -2.671875q-2.28125 0 -4.53125 1.171875q-2.25 1.171875 -3.96875 3.1875q-1.703125 2.0 -2.421875 4.578125l0 19.140625l-4.078125 0l0 -43.796875l4.078125 0l0 19.609375q1.859375 -3.46875 5.1875 -5.53125q3.328125 -2.078125 7.109375 -2.078125q2.703125 0 4.59375 0.96875q1.890625 0.953125 3.0625 2.78125q1.171875 1.828125 1.703125 4.265625q0.546875 2.421875 0.546875 5.484375l0 18.296875zm22.19873 0.59375q-3.359375 0 -6.25 -1.28125q-2.875 -1.296875 -4.96875 -3.546875q-2.09375 -2.25 -3.265625 -5.1875q-1.171875 -2.9375 -1.171875 -6.296875q0 -4.375 2.0 -8.03125q2.015625 -3.671875 5.546875 -5.859375q3.546875 -2.1875 8.046875 -2.1875q4.625 0 8.0625 2.21875q3.453125 2.21875 5.4375 5.859375q1.984375 3.625 1.984375 7.9375q0 0.484375 0 0.9375q0 0.4375 -0.0625 0.6875l-26.765625 0q0.3125 3.359375 1.890625 5.96875q1.59375 2.609375 4.140625 4.140625q2.5625 1.53125 5.5625 1.53125q3.046875 0 5.78125 -1.5625q2.734375 -1.5625 3.8125 -4.078125l3.53125 0.953125q-0.953125 2.21875 -2.9375 4.03125q-1.96875 1.796875 -4.640625 2.78125q-2.671875 0.984375 -5.734375 0.984375zm-11.515625 -17.6875l23.09375 0q-0.234375 -3.421875 -1.828125 -6.0q-1.59375 -2.59375 -4.140625 -4.0625q-2.546875 -1.46875 -5.609375 -1.46875q-3.0625 0 -5.578125 1.46875q-2.515625 1.46875 -4.109375 4.09375q-1.59375 2.609375 -1.828125 5.96875zm79.735596 17.09375l-4.078125 0l0 -17.453125q0 -5.46875 -1.75 -8.046875q-1.734375 -2.578125 -5.15625 -2.578125q-3.53125 0 -6.328125 2.515625q-2.78125 2.515625 -3.921875 6.484375l0 19.078125l-4.078125 0l0 -17.453125q0 -5.53125 -1.6875 -8.078125q-1.6875 -2.546875 -5.15625 -2.546875q-3.484375 0 -6.3125 2.46875q-2.8125 2.453125 -3.953125 6.46875l0 19.140625l-4.078125 0l0 -31.265625l3.71875 0l0 7.078125q1.984375 -3.65625 5.0625 -5.625q3.09375 -1.984375 6.875 -1.984375q3.90625 0 6.296875 2.21875q2.40625 2.21875 2.953125 5.8125q2.15625 -3.953125 5.1875 -5.984375q3.03125 -2.046875 6.859375 -2.046875q2.640625 0 4.46875 0.96875q1.84375 0.953125 2.953125 2.71875q1.109375 1.765625 1.609375 4.265625q0.515625 2.484375 0.515625 5.546875l0 18.296875zm12.414307 -12.125q0 -2.640625 0.5625 -4.53125q0.578125 -1.890625 1.6875 -3.265625q1.109375 -1.375 2.859375 -2.390625q1.140625 -0.734375 2.609375 -1.5q1.46875 -0.78125 2.75 -1.828125q1.296875 -1.0625 2.140625 -2.59375q0.84375 -1.53125 0.84375 -3.6875q0 -2.640625 -1.171875 -4.34375q-1.171875 -1.71875 -3.03125 -2.578125q-1.859375 -0.875 -3.96875 -0.875q-2.09375 0 -3.984375 0.8125q-1.890625 0.8125 -3.328125 2.1875q-1.4375 1.375 -2.34375 3.125l-2.8125 -1.8125q1.140625 -2.453125 3.078125 -4.1875q1.953125 -1.75 4.40625 -2.640625q2.46875 -0.90625 5.046875 -0.90625q2.21875 0 4.3125 0.6875q2.109375 0.6875 3.75 2.140625q1.65625 1.4375 2.640625 3.5625q1.0 2.125 1.0 5.0625q0 2.40625 -0.671875 4.0625q-0.65625 1.640625 -1.828125 2.8125q-1.15625 1.171875 -2.609375 2.078125q-1.4375 0.890625 -2.984375 1.734375q-1.390625 0.78125 -2.65625 1.75q-1.25 0.953125 -2.03125 2.609375q-0.78125 1.640625 -0.78125 4.515625l-3.484375 0zm0.0625 12.125l0 -6.421875l3.546875 0l0 6.421875l-3.546875 0z" fill-rule="nonzero"/></g></svg>